<svg width="178" height="171" viewBox="0 0 178 171" fill="none" xmlns="http://www.w3.org/2000/svg">
<path d="M126.783 116.132L55.1834 126.583C52.7175 126.831 50.2538 126.09 48.3344 124.522C46.4151 122.954 45.1972 120.688 44.9487 118.222C44.7003 115.756 45.4416 113.292 47.0095 111.373C48.5775 109.453 50.8438 108.235 53.3097 107.987C53.6311 107.987 53.9526 107.987 54.2662 107.909L125.874 97.4583C128.34 97.2046 130.805 97.9409 132.728 99.5052C134.651 101.07 135.874 103.334 136.128 105.8C136.382 108.266 135.645 110.731 134.081 112.654C132.517 114.577 130.252 115.8 127.787 116.054C127.465 116.054 127.144 116.054 126.822 116.132" fill="#F2994A"/>
<path d="M119.304 140.843L61.7607 149.231C59.2657 149.231 56.8728 148.24 55.1086 146.476C53.3443 144.712 52.3531 142.319 52.3531 139.824C52.3531 137.329 53.3443 134.936 55.1086 133.172C56.8728 131.407 59.2657 130.416 61.7607 130.416L119.304 122.098C121.799 122.098 124.192 123.09 125.956 124.854C127.72 126.618 128.711 129.011 128.711 131.506C128.711 134.001 127.72 136.394 125.956 138.158C124.192 139.922 121.799 140.914 119.304 140.914" fill="#F2994A"/>
<path d="M104.119 166.549L76.9386 170.744C74.4436 170.744 72.0507 169.752 70.2864 167.988C68.5222 166.224 67.531 163.831 67.531 161.336C67.531 158.841 68.5222 156.448 70.2864 154.684C72.0507 152.92 74.4436 151.928 76.9386 151.928L104.119 147.734C105.403 147.651 106.69 147.832 107.901 148.267C109.112 148.701 110.221 149.379 111.16 150.259C112.098 151.139 112.846 152.202 113.358 153.382C113.869 154.563 114.133 155.836 114.133 157.122C114.133 158.409 113.869 159.682 113.358 160.862C112.846 162.043 112.098 163.106 111.16 163.986C110.221 164.865 109.112 165.543 107.901 165.978C106.69 166.412 105.403 166.593 104.119 166.51" fill="#F2994A"/>
<path d="M99.9167 96.4783V83.8486C99.9167 81.3536 98.9255 78.9607 97.1613 77.1965C95.397 75.4322 93.0042 74.441 90.5091 74.441C88.014 74.441 85.6212 75.4322 83.8569 77.1965C82.0927 78.9607 81.1015 81.3536 81.1015 83.8486V99.1987L99.9167 96.4783Z" fill="#F2994A"/>
<path d="M85.374 72.4263C86.1579 64.6807 87.8435 29.6061 56.3672 11.418C25.8709 -5.91546 0 2.74737 0 2.74737C0.5208 2.74425 1.03639 2.85111 1.51306 3.06096C7.72991 4.50345 32.4562 11.6297 61.9334 40.0171C61.9334 40.0171 83.563 58.7383 85.3818 72.4263" fill="#66D836"/>
<path d="M7.11854 12.5312C8.99222 22.2994 21.669 88.0899 77.3463 76.0795C78.3968 71.5795 76.382 53.7521 61.9335 40.017C32.4642 11.6296 7.73004 4.50335 1.51318 3.06085C3.19087 3.71938 5.83284 5.86745 7.11854 12.5312Z" fill="#66D836"/>
<path d="M177.913 38.6372C177.913 38.6372 150.898 18.2933 120.543 30.6329C90.1875 42.9726 94.1936 72.6614 94.1936 72.6614C99.7519 59.9847 112.821 51.8863 112.821 51.8863C136.7 31.0798 177.89 38.6372 177.89 38.6372" fill="#66D836"/>
<path d="M100.787 76.1501C132.6 90.8181 152.317 67.5265 158.573 55.6494C165.245 42.9727 177.913 38.6373 177.913 38.6373C177.913 38.6373 136.7 31.0799 112.844 51.8864C101.398 62.1642 100.928 73.0535 100.81 76.1893" fill="#66D836"/>
</svg>
